<svg id="Layer_1" data-name="Layer 1" xmlns="http://www.w3.org/2000/svg" viewBox="0 0 841.89 595.28"><defs><style>.cls-1,.cls-20,.cls-4,.cls-5{fill:#fff;}.cls-1,.cls-12,.cls-13,.cls-14,.cls-15,.cls-16,.cls-17,.cls-19,.cls-2,.cls-20,.cls-22,.cls-23,.cls-24,.cls-25,.cls-26,.cls-27,.cls-28,.cls-29,.cls-3,.cls-30,.cls-31,.cls-32,.cls-33,.cls-34,.cls-35,.cls-36,.cls-37,.cls-38,.cls-39,.cls-4,.cls-5,.cls-6,.cls-7,.cls-8,.cls-9{stroke:#000;stroke-miterlimit:10;}.cls-1,.cls-12,.cls-13,.cls-2,.cls-22,.cls-23,.cls-24,.cls-27,.cls-3,.cls-37,.cls-8{stroke-width:3px;}.cls-11,.cls-3{fill:#c7101e;}.cls-14,.cls-16,.cls-25,.cls-26,.cls-29,.cls-34,.cls-35,.cls-4,.cls-7,.cls-9{stroke-width:2px;}.cls-10,.cls-8,.cls-9{fill:#f3f3f3;}.cls-12{fill:#e52424;}.cls-13{fill:#e9e7e3;}.cls-14,.cls-17,.cls-18{fill:#ffda40;}.cls-14,.cls-16,.cls-17,.cls-24{stroke-linecap:round;}.cls-15{fill:#c948ff;}.cls-16{fill:#262626;}.cls-19{fill:#ff7592;}.cls-20{stroke-width:0.5px;}.cls-21{fill:#9f680e;}.cls-22,.cls-24{fill:#d16072;}.cls-23{fill:#1f7a8b;}.cls-25{fill:#282827;}.cls-26{fill:#bd6978;}.cls-27,.cls-28,.cls-29{fill:#c0edee;}.cls-30{stroke-width:0.75px;}.cls-31{fill:#bcebec;}.cls-32{fill:#efc7d7;}.cls-33{fill:#f0a406;}.cls-34,.cls-39{fill:#c47f67;}.cls-35{fill:#eae4e6;}.cls-36{fill:#f9f9f9;}.cls-37{fill:#202829;}.cls-38{fill:#ea7682;}</style></defs><title>Artboard 1</title><rect class="cls-1" x="170" y="139.28" width="125" height="91" rx="15" ry="15"/><circle class="cls-2" cx="200.46" cy="174.28" r="10.5"/><circle class="cls-2" cx="263.52" cy="174.28" r="10.5"/><rect class="cls-2" x="193.25" y="202.47" width="78.5" height="9.16" rx="3.5" ry="3.5"/><path d="M103.63,275.4C97.57,263,79,262.9,77.59,262.91c-16.68.11-27.8,12.65-28.89,13.92-10.58,12.31-6.6,23.57-16,28.51s-20-2.43-21.48.39,8.5,13.48,21.61,18.61c23.39,9.16,45.86-3.22,47.51-4.16,3.24-1.85,20.8-11.89,24.34-30.2C105.34,286.49,106.34,280.94,103.63,275.4Z"/><path d="M100.54,270.7c6.83-8.33,18.44-7.93,22.3-7.79,16.68.57,27.59,13.07,28.31,13.92,10.36,12.31,6.47,23.57,15.69,28.51s19.62-2.43,21,.39-8.33,13.48-21.17,18.61c-22.92,9.16-44.94-3.22-46.55-4.16-.4-.23-1-.6-1.81-1.09-3.75-2.34-19.85-12.49-22-29.11C95.92,287,94.71,277.82,100.54,270.7Z"/><path class="cls-3" d="M129.62,472c-13.46,6.19-10.2,16-23.2,22.93-11.83,6.3-20.06,1.09-29.21,9.74-1.52,1.44-5.63,5.33-6.74,11.14-2.81,14.75,16.25,28.68,19,30.67,17.3,12.58,36.67,12.11,54,11.68,17-.41,37.95-.92,55.5-15.33,4.35-3.57,18.68-15.34,16.79-29.21a21.85,21.85,0,0,0-5.11-10.95c-10-12-23.25-4.48-38.7-15.34-10.13-7.11-8.56-13.25-18.26-16.79C142.34,466.42,131.05,471.37,129.62,472Z"/><ellipse class="cls-4" cx="122.27" cy="442.82" rx="10.18" ry="59.88"/><ellipse class="cls-4" cx="162.78" cy="442.82" rx="10.18" ry="59.88"/><path class="cls-5" d="M207.87,521.42c.09,12.4-35.07,26.84-67.16,26.33-30.9-.5-64.49-14.92-64.17-26.33a7.19,7.19,0,0,1,2.07-4.57,24.15,24.15,0,0,1,4.56-3.67c17.84-11.91,31.26,7.16,58.73,8.27,30.43,1.22,48.63-20.78,62.33-6.77C205.78,516.26,207.84,518.44,207.87,521.42Z"/><circle class="cls-6" cx="122.27" cy="450.43" r="5.68"/><circle class="cls-6" cx="162.78" cy="450.43" r="5.68"/><circle class="cls-5" cx="162.3" cy="439.39" r="4.2"/><path class="cls-5" d="M82,524.29a131.39,131.39,0,0,0,122.26-2.09"/><line class="cls-6" x1="144.6" y1="527.02" x2="144.6" y2="545.82"/><line class="cls-6" x1="162.58" y1="527.02" x2="162.58" y2="544.32"/><line class="cls-6" x1="126.32" y1="527.77" x2="126.32" y2="545.07"/><line class="cls-6" x1="178.16" y1="525.51" x2="178.16" y2="539.37"/><line class="cls-6" x1="191.65" y1="523.61" x2="191.65" y2="532.89"/><line class="cls-6" x1="109.84" y1="527.02" x2="109.84" y2="540.87"/><line class="cls-6" x1="93.36" y1="525.11" x2="93.36" y2="534.39"/><circle class="cls-5" cx="122.27" cy="439.39" r="4.2"/><path class="cls-6" d="M112.09,373l7.59,11.26"/><path class="cls-6" d="M130,369.28l-6.61,14.33"/><path class="cls-6" d="M120.35,367l1.33,16.66"/><path class="cls-6" d="M152.82,373l7.81,11.59"/><path class="cls-6" d="M171.07,369.28,164.3,384"/><path class="cls-6" d="M161.3,366.28,162.63,383"/><path class="cls-7" d="M174.74,499.94l-.78-9.58,9.39-7,13.38-2.58-1.11-18.17,13.19-4.48,9.35-10.74,12.42-7.09L228.87,450l-6.82,14-14.28,7.1-1.11,20.21L189,493l-1,9.26Z"/><path class="cls-1" d="M365.58,157.91c-2.53-.81-3.3-.2-14.29,1.15s-13.69,1.16-14.28,2.85c-1.2,3.44,9.41,7.52,8.57,13.71-.56,4.17-5.6,5.39-5.71,9.71a8.33,8.33,0,0,0,4.57,7.43c2.91,1.31,6.09,0,12-3.43,13.4-7.67,20.11-11.51,20.56-16C377.65,166.91,371.77,159.9,365.58,157.91Z"/><path class="cls-1" d="M489,178.48c8,.12,16.09,4,16,6.85-.11,3.27-10.6,2.38-16,10.29-4.08,6-1.56,12.66-4.57,13.71-2.42.84-4.25-3.27-10.29-6.29-8.14-4.06-13.66-1-14.85-3.42C457.11,195.22,471.83,178.22,489,178.48Z"/><path class="cls-3" d="M422.14,148.51c4.13-3.16,7.36-6.31,11.17-8.44,12.41-6.9,27.16-4.36,37,6s10.81,24.16,2.53,37.63c-9.66,15.72-23,28.1-36.79,40.08-3.56,3.1-7.18,6.15-11,8.94-1,.69-3.24.92-4,.28-17.84-14.27-35-29.18-47.74-48.54-11.79-18-4.79-34.6,7.53-43a30.34,30.34,0,0,1,38.84,4C420.54,146.44,421.33,147.53,422.14,148.51Z"/><path class="cls-1" d="M358.72,173.34c-3.53,6.44-1.38,18.55,4,21.14,2.32,1.11,4.85.27,5.71,0,18.38-5.79,90.5-6.53,109.69-2.29a9,9,0,0,0,6.29-.57c5.88-3.32,7.13-16.29,2.28-20a6,6,0,0,0-3.43-1.14c-19.05-.43-38.17-4.28-57.13-2.28C382.08,172.83,364.45,162.89,358.72,173.34Z"/><path class="cls-8" d="M114.92,121c4.3,3.07-3.6,13.94-5.48,42.49-.59,8.9-1.31,13.93-2.74,24-1.51,10.52-2.19,12.46-3.43,14.39-5.53,8.63-17.51,10-26,11-12.49,1.42-27.85,3.18-37.69-6.17-4.55-4.31-4.78-8-9.6-35.64-5.37-30.82-6.89-36.54-3.42-39.06,6.67-4.85,17.65,12.49,37.69,13C90.81,145.67,108.07,116.07,114.92,121Z"/><path class="cls-8" d="M116.29,128.52c1.77-8.66-4.27-16.35-5.48-17.82-9.81-11.92-27.68-11-41-10.28-10.88.57-40.38,2.12-45.31,17.82-2.35,7.49,2,14.78,2.63,15.88,6.08,10.25,18.94,12.12,33.69,14.27,9.26,1.35,17.22,2.51,27.41,0C93.57,147.07,113.5,142.16,116.29,128.52Z"/><path class="cls-9" d="M61.47,82.6c-2.74,1.32-4.73,4-8.23,23.3-2.78,15.33-2.24,17.54-.68,19.19,3.93,4.16,13.32,3.72,17.13-.69,3-3.4.5-6.79.69-17.81.23-14,4.36-19.92.68-23.3C68.67,81.09,64.35,81.21,61.47,82.6Z"/><ellipse class="cls-10" cx="61.93" cy="130.03" rx="15.76" ry="8.22"/><path class="cls-11" d="M30.58,149.8c-1.5,1.3-2,3.53,1,20.91,2.81,16.23-.06,22.86,5.29,30.42a27.52,27.52,0,0,0,6.18,6.24c3.71,2.69,8.64,4.82,17.65,5.48,6.93.51,28.26,2.1,31.52-6.85,1.44-3.95-.67-9.6-4.44-12.67C79,186.1,65.45,197,57.66,189.9c-4.25-3.87-5.22-11.38-2.74-13.71,3.56-3.34,12,6.1,23.3,3.43,8-1.88,11.86-8.46,14.39-6.85,2.71,1.72-.1,10.25,0,10.28.39.08,10.9-23.48,3.43-30.16-5.85-5.23-15.78,6.42-34.95,4.8C44.12,156.26,35.31,145.74,30.58,149.8Z"/><ellipse cx="56.41" cy="178.82" rx="5.14" ry="3.6"/><ellipse cx="92.25" cy="182.41" rx="5.14" ry="3.6"/><polygon class="cls-12" points="378.26 95.78 378.26 129.31 435.66 109.97 438.24 84.17 378.26 95.78"/><polygon class="cls-12" points="327.96 106.74 327.96 81.59 378.26 95.78 378.26 129.31 327.96 106.74"/><polygon class="cls-13" points="327.96 35.8 378.26 39.67 378.26 95.78 327.96 81.59 327.96 35.8"/><polygon class="cls-13" points="441.46 32.58 438.24 84.17 378.26 95.78 378.26 39.67 441.46 32.58"/><polygon class="cls-13" points="348.6 17.75 327.96 35.8 378.26 39.67 348.6 17.75"/><polygon class="cls-13" points="441.46 32.58 378.26 39.67 355.14 22.59 429.85 17.75 441.46 32.58"/><polygon class="cls-13" points="438.24 4.2 445.98 17.75 355.14 22.59 348.6 17.75 355.14 6.78 438.24 4.2"/><line class="cls-12" x1="327.96" y1="35.8" x2="363.43" y2="28.71"/><rect class="cls-2" x="148.46" y="24.86" width="125" height="91" rx="15" ry="15"/><circle class="cls-1" cx="178.91" cy="59.86" r="10.5"/><circle class="cls-1" cx="241.98" cy="59.86" r="10.5"/><rect class="cls-1" x="171.71" y="88.05" width="78.5" height="9.16" rx="3.5" ry="3.5"/><path class="cls-3" d="M439.15,260.33c5.09-3.9,9.09-7.79,13.79-10.41,15.32-8.53,33.53-5.38,45.63,7.38s13.34,29.82,3.12,46.45c-11.92,19.41-28.43,34.7-45.42,49.49-4.4,3.82-8.87,7.59-13.56,11-1.18.86-4,1.14-5,.34-22-17.61-43.26-36-59-59.92-14.54-22.17-5.91-42.71,9.3-53.05a37.46,37.46,0,0,1,47.95,5C437.17,257.78,438.15,259.13,439.15,260.33Z"/><path class="cls-14" d="M392.8,434c2,.1,2.22-3.19,5.33-5,3.3-1.91,7.89-1.48,11,0,2.73,1.3,3,2.79,4.67,2.67,2.8-.21,3-5.32,6.33-6,1.66-.34,2,.79,4.5.5s3.32-1.65,4.5-1.17c1.82.74,1.45,4.58,2.33,4.67,1,.1,1.32-5.21,3.34-5.67,2.44-.56,7.59,6,6.16,10.5-.78,2.48-3.27,3.43-2.83,5s3.2,1.07,4.33,3.17c.94,1.73-.55,2.82.17,5.83.55,2.31,1.61,2.41,1.5,3.83-.18,2.34-3.24,2.45-4,5.34-.6,2.27,0,5.18,1.67,6,1.34.68,2.33-.6,3.33,0,1.89,1.13-1.23,5.9.67,11.5,1,2.85,2.43,3.57,2,5.5-.51,2.2-2.68,2.29-3.34,4.83-.55,2.13.8,2.8.17,5s-2.49,2.65-2.33,4c.2,1.74,3.22,1.44,4.5,3.83,1.57,2.94-.93,7.26-1.17,7.67-1.16,2-1.92,1.76-2.17,3-.6,3,3.63,4.84,3,7.67-.19.88-.61.76-2.83,3.16-3,3.28-3.33,4.68-4.5,4.67-1.9,0-2.67-3.7-4-3.5s-.66,3.69-3,6a7.67,7.67,0,0,1-7.83,1.5c-3.23-1.34-2.92-4.72-5.17-5.17-2.83-.56-4.06,4.59-9.67,7.67-3.71,2-9.3,3.15-14,1.33s-6.11-5.71-8.66-5c-2.36.66-1.68,4.1-5,6a9.79,9.79,0,0,1-8,.34c-2.62-1-2.73-2.51-4.5-2.5-2.69,0-3.6,3.4-6.17,3.16-1-.09-1.72-.72-3.17-2s-2.73-2.4-3.16-4c-.85-3.12,2.76-4.52,2.5-7.83-.31-3.83-5.33-4.35-5.5-7.83s5.08-5,4.66-8.34c-.34-2.76-4-2.87-5-6.66-.66-2.45.76-2.75.34-6-.55-4.19-3.26-6.41-2.17-8,.48-.71,1.08-.37,1.83-1.17,1.39-1.48,1.23-4.68-.16-6.83-1.73-2.67-4.2-1.93-5.17-4.34a5.36,5.36,0,0,1,1-5.33c1-1.09,1.9-.7,2.83-1.83a4.56,4.56,0,0,0,.5-4.84c-1-1.83-3-.94-4.33-2.66-1.77-2.37-.11-6.81.33-8,.72-1.93,1.33-2.27,1.34-3.67,0-2.26-1.55-2.78-1.67-4.67-.19-2.88,3.14-6.42,6-6.33,2.32.07,3.31,2.51,4.83,2s.84-2.76,2.67-4.5,5-2,7.33-1.17c3.21,1.12,3.49,3.86,5.67,3.84s2.15-2.43,5.17-3.84a10.27,10.27,0,0,1,9.66.84C391.4,432.56,391.5,434,392.8,434Z"/><ellipse class="cls-5" cx="382.84" cy="462.28" rx="12.88" ry="15"/><ellipse class="cls-15" cx="383.67" cy="463.23" rx="5.04" ry="6.3"/><ellipse cx="384.13" cy="462.91" rx="1.75" ry="2"/><ellipse class="cls-5" cx="410.48" cy="460.91" rx="12.88" ry="15"/><ellipse class="cls-15" cx="411.31" cy="461.86" rx="5.04" ry="6.3"/><ellipse cx="410.77" cy="461.53" rx="1.75" ry="2"/><path class="cls-16" d="M370.21,478c-3.27,2.83,1.71,13.49,6.5,23.75,7.21,15.42,11.07,18.14,13.75,19.5a21.52,21.52,0,0,0,10.5,2.25,22.24,22.24,0,0,0,13-5.25c3-2.51,5-5.52,10.25-24.75,4.33-15.78,4.77-20.17,2.75-21.5-1.42-.94-3.89-.24-5.25.5-2.22,1.21-2.4,3.05-4.25,5.5-2.15,2.86-4.77,4.15-8,5.75a31.56,31.56,0,0,1-10.5,3c-3,.32-7.1.76-11.75-1a19.56,19.56,0,0,1-7.5-4.5c-1.67-1.69-2.32-3.09-4.25-3.75C373.84,477,371.44,477,370.21,478Z"/><ellipse class="cls-17" cx="397.6" cy="471.91" rx="5.5" ry="6.79"/><ellipse class="cls-18" cx="397.6" cy="478.2" rx="4.88" ry="3.5"/><path class="cls-19" d="M387.93,520.28c-.91-2.85,4.82-8.58,9-8,2.46.34,3,2.68,5.52,2.75,3.46.09,4.69-4.27,7.48-4.09s6,4.81,5,7.67C412.85,524.86,389.5,525.16,387.93,520.28Z"/><path class="cls-20" d="M396.48,497.7a9.34,9.34,0,0,1-8.75,0,21.08,21.08,0,0,1,.07-11.5,16.24,16.24,0,0,0,4.16,1,15.88,15.88,0,0,0,4.42-.17,17.32,17.32,0,0,1,.85,4.5A17.65,17.65,0,0,1,396.48,497.7Z"/><path class="cls-20" d="M409.37,496.57a9.35,9.35,0,0,1-4.59,1.63,9.47,9.47,0,0,1-4.1-.61,23.05,23.05,0,0,1-1.47-10.73,15.17,15.17,0,0,0,8.75-2,22.86,22.86,0,0,1,1.41,11.71Z"/><path class="cls-21" d="M372.46,520.28c.27-2.33.47-4.19-.66-6-.88-1.38-2.76-3.09-4.48-2.73-2.42.5-3.67,5-3,8.34.74,3.74,4,7.18,5.92,6.62C371.81,526,372.18,522.81,372.46,520.28Z"/><path class="cls-21" d="M367.29,505.9c.16-1.47.29-2.64-.42-3.79-.56-.87-1.74-1.95-2.83-1.72-1.53.32-2.32,3.13-1.9,5.27.47,2.36,2.54,4.52,3.73,4.17C366.88,509.54,367.11,507.5,367.29,505.9Z"/><path class="cls-21" d="M363.84,451.19c-.28-1.9-.5-3.42-1.85-4.55-1-.86-3-1.71-4.38-1-1.95,1-2.06,4.88-.77,7.36,1.42,2.75,5,4.6,6.43,3.67C364.52,455.9,364.14,453.26,363.84,451.19Z"/><path class="cls-21" d="M364.75,464c.43-1.35.78-2.43.19-3.59a3.4,3.4,0,0,0-2.77-2c-1.73.09-3.07,2.61-3,4.65.1,2.26,2,4.57,3.34,4.4C363.67,467.35,364.27,465.48,364.75,464Z"/><path class="cls-21" d="M425,442.65c.45,1.16.82,2.09,1.9,2.47a3.26,3.26,0,0,0,3.15-.49c1.2-1.17.74-3.68-.5-5s-4-1.71-4.93-.72C423.91,439.78,424.54,441.39,425,442.65Z"/><path class="cls-21" d="M431.44,514.69c.39.89.7,1.61,1.53,1.94a2.37,2.37,0,0,0,2.35-.24c.86-.84.41-2.76-.57-3.78s-3.11-1.45-3.74-.74S431,513.71,431.44,514.69Z"/><path class="cls-21" d="M436.65,499.22c.23-1.89.41-3.39-.52-4.85-.72-1.11-2.28-2.49-3.72-2.19-2,.43-3.08,4-2.54,6.76.59,3,3.31,5.78,4.89,5.32C436.08,503.87,436.4,501.26,436.65,499.22Z"/><path class="cls-22" d="M613,311a605.39,605.39,0,0,0-68.24,206.9l149-13.06a716.11,716.11,0,0,0-29.07-121.51A715.76,715.76,0,0,0,636.53,312a15,15,0,0,0-10.47-6.59C618.26,304.52,613.31,310.63,613,311Z"/><path class="cls-23" d="M547.42,492.41c-1.56,1.18-.91,2.76-2.8,13.53-1.33,7.56-1.94,8.56-1,9.85,1.92,2.69,6.8,1.4,20.2.36,9.34-.73-20.26,2,12.82-.73,16.72-1.39,25.08-2.09,39.81-3.41,15.17-1.36,36.05-3,51.37-4.45,19.65-1.82,15.57-1.89,15.69-1.89,3.52.06,5.74.36,7.47-1.21,3.09-2.82,1.67-9,1.24-10.95-.82-3.59-1.59-7-4.25-8.37-3.42-1.8-7.11.64-22.67,7.56-7.92,3.52-8.9,2.3-49.4,6.4-34.61,3.51-37.63,4.78-45.46,1.81C559.71,496.84,551.62,489.23,547.42,492.41Z"/><path class="cls-22" d="M559,487.8c-3.61,4.25-10.23,7.6-16.3,6.12-10.13-2.47-12.86-17-14-23.12s-2.6-13.76,1.54-20.06c2.22-3.4,5-4.75,5.13-8.31.14-4.05-3.36-5.4-3-9.68.25-3,2.31-6.25,4.71-6.63,3-.46,5.71,3.81,6.87,3,.85-.58-.72-2.83.37-4.76s4.53-2.83,6.9-1.75,2.93,3.62,3.5,5.95c1.52,6.24-1.29,8.66.1,13.65,1,3.77,2.78,3.86,5.11,8.07,3.16,5.7,3.08,11.16,3,18.21C562.79,478.48,562.72,483.47,559,487.8Z"/><path class="cls-22" d="M559.76,451.71c-.14-5-5.46-8.34-7.14-9.33-1.89-1.1-4.69-2.73-6.19-1.67-2.07,1.45-.95,7.47,2,11.39,1.55,2.09,5.29,5.77,8.39,4.68C558.78,456.09,559.81,453.77,559.76,451.71Z"/><path class="cls-24" d="M547.11,437a10.22,10.22,0,0,1-2.77-4.08,10.47,10.47,0,0,1-.58-4.51"/><path class="cls-22" d="M670.33,474.7c3.24,4.55,9.55,8.45,15.72,7.49,10.31-1.59,14.27-15.83,16-21.83s3.76-13.48.18-20.12c-1.93-3.57-4.59-5.16-4.4-8.72.21-4,3.81-5.09,3.81-9.39,0-3-1.77-6.42-4.13-7-3-.73-6,3.3-7.1,2.43-.8-.65.95-2.76,0-4.78s-4.26-3.2-6.72-2.33-3.23,3.36-4,5.62c-2,6.09.55,8.74-1.26,13.6-1.37,3.66-3.11,3.61-5.79,7.6-3.63,5.41-4,10.86-4.52,17.88C667.4,465.1,667,470.07,670.33,474.7Z"/><path class="cls-22" d="M672.71,438.69c.57-5,6.15-7.85,7.92-8.69,2-.93,4.9-2.32,6.31-1.14,1.94,1.63.3,7.53-2.94,11.19-1.73,1.95-5.76,5.29-8.77,3.94C673.31,443.13,672.48,440.73,672.71,438.69Z"/><path class="cls-24" d="M686.24,425.11a10.19,10.19,0,0,0,4.07-8.27"/><path class="cls-4" d="M618.61,411.54c-.42.63-7.66,11.28-16.27,9.54s-11.18-14.39-11.44-15.68a22.34,22.34,0,0,1,1.31-13.85c4.23-9.22,15.88-16.08,23.17-12.92C624.24,382.47,625.75,400.74,618.61,411.54Z"/><ellipse class="cls-6" cx="611.21" cy="401.16" rx="5.8" ry="3.41" transform="translate(98.76 922.61) rotate(-78.78)"/><path class="cls-4" d="M647.67,398.12c-.2,8.47-5.11,19.27-12.29,20.11-8.22,1-17.54-11.36-17.27-22.87.22-9.54,7.06-20.38,14.69-20.4C641.05,374.94,647.92,387.58,647.67,398.12Z"/><ellipse class="cls-6" cx="628.24" cy="399.67" rx="2.95" ry="5.01" transform="translate(-40.11 71.45) rotate(-6.31)"/><path class="cls-25" d="M589.83,422.25c6.15-3.68,14.57,10.69,28.55,10.43,16.32-.3,23.92-20.19,29.76-17.49,5.67,2.64,5.28,24.63-6.79,38.95-2.2,2.6-12.08,14.33-26.5,13.19-15.63-1.23-25.2-16.68-27.45-28.13C587.08,437.57,584.67,425.33,589.83,422.25Z"/><path class="cls-26" d="M619.72,457.3c3.77,1.15,7.25-6.19,10.8-5.33,2.29.55,4,4.35,3.44,7.31-1.16,5.79-11.33,8.34-18.41,7.74-2.92-.25-8-.68-9.38-4.16-1-2.62.32-6.32,3.08-8.05a7.77,7.77,0,0,1,6.84-.39C618.34,455.42,618.14,456.82,619.72,457.3Z"/><rect class="cls-6" x="605.72" y="360.91" width="7.84" height="14.14" rx="1.92" ry="1.92" transform="translate(521.88 -338.68) rotate(51.81)"/><rect class="cls-6" x="625.79" y="353.51" width="8.03" height="14.57" rx="1.92" ry="1.92" transform="translate(1323.61 147.56) rotate(133.11)"/><path class="cls-27" d="M629.64,182.75c-3.49-3.36-7.36-4.17-9-4.75-7.59-2.68-12.14-16.22-11.75-23.5,1-18.28,35.33-36,65.5-32.5,3.37.4,39,5,43.5,27.5,2.37,11.9-4.07,28.43-14.5,32.75-4.27,1.77-10.4.84-13.75,5.5a14.36,14.36,0,0,0-2.25,6.25c-.53,4,.93,5.27.75,10.75-.12,3.77-.84,4-.25,5.25,1.87,3.82,9.16,1,12,5,2.5,3.55.1,9.38-1.5,12-.95,1.55-2.4,3.93-4.75,4.25-2.59.35-4.15-2.09-7.25-4-3.54-2.18-6.24-1.93-12.5-2.5-18.44-1.69-22.64-6.44-28.5-2.75-1.83,1.16-3.26,2.78-7,4.5a18.44,18.44,0,0,1-8,2c-2,0-4.42-.07-6.5-1.75a9.34,9.34,0,0,1-2.5-10.25c1.68-4.28,6.6-5.81,8-6.25,3.67-1.14,5.34-.05,7-1.75a6,6,0,0,0,.75-7c-.49-.7-.86-.68-1.5-1.25-2.93-2.61-.26-7.41-2.5-12.75A13.8,13.8,0,0,0,629.64,182.75Z"/><path class="cls-28" d="M668.64,155.5c2.07-5.63,3.66-6.78,4.75-6.75,1.27,0,1.77,1.67,3.25,1.63,1.92-.06,2.27-2.84,4.25-3.13,1.74-.26,4.11,1.49,4.75,3.5s-.54,4.09,1,6.69l0,.06"/><path class="cls-28" d="M674.64,144.5a7.7,7.7,0,0,1,11.5,4.25"/><path class="cls-29" d="M629.89,219a81.19,81.19,0,0,1,60.75,1.75"/><path class="cls-29" d="M673.14,214c-1.06-14.13-4-18.95-5.25-20.75-1.52-2.23-3.67-5.3-6.86-5.46s-5.8,2.8-7.39,4.71c-5.22,6.3-6,13.63-6.75,22-.78,8.57-1.12,12.93,1.25,17,.28.48,5.29,8.79,12.89,8.11,7.2-.65,10.7-8.82,11.36-10.36C674,225.56,673.72,221.66,673.14,214Z"/><line class="cls-28" x1="690.64" y1="218.5" x2="690.64" y2="222.17"/><line class="cls-28" x1="629.89" y1="217.35" x2="629.89" y2="220.33"/><ellipse class="cls-28" cx="629.89" cy="136.08" rx="0.17" ry="0.42"/><path class="cls-6" d="M670.89,131.17h0Z"/><ellipse class="cls-6" cx="688.24" cy="128.83" rx="0.82" ry="0.33"/><ellipse class="cls-6" cx="700.72" cy="134.92" rx="1.33" ry="0.08"/><ellipse class="cls-6" cx="662.43" cy="127.75" rx="1.2" ry="0.75"/><ellipse class="cls-6" cx="645.81" cy="128.83" rx="1.58" ry="0.33"/><ellipse class="cls-6" cx="620.89" cy="143.65" rx="1" ry="0.35"/><ellipse class="cls-6" cx="641.72" cy="136.92" rx="0.67" ry="0.42"/><path class="cls-6" d="M655.56,135.75v0Z"/><path class="cls-6" d="M663.63,135.33v0Z"/><path class="cls-7" d="M634.39,163a49.25,49.25,0,0,1,22-.5"/><path class="cls-7" d="M663.64,163a49.25,49.25,0,0,1,22-.5"/><path class="cls-30" d="M641.89,180.25a24.77,24.77,0,0,1,5.63-.75,25.14,25.14,0,0,1,5.37.5"/><path class="cls-30" d="M671,179.88a24.62,24.62,0,0,1,11-.25"/><ellipse class="cls-31" cx="647.39" cy="179.88" rx="12.25" ry="16.63"/><ellipse cx="647.39" cy="185.83" rx="1.63" ry="3"/><path class="cls-28" d="M659.64,179.88c.82-2.22-.26-6.67-1.42-8.21a13.29,13.29,0,0,1-1.16-1.84,13,13,0,0,1-.84-2c-.63-1.82-4.46-4.46-8.83-4.58s-8.37,2.17-9.5,4.58c-.13.27-.42,1-1,2.17-.85,1.75-1.41,2.67-1.67,3.17a9.07,9.07,0,0,0-.08,6.71C637.79,186.15,657.45,185.82,659.64,179.88Z"/><ellipse class="cls-31" cx="674.89" cy="179.88" rx="12.25" ry="16.63"/><ellipse cx="674.89" cy="185.83" rx="1.63" ry="3"/><path class="cls-28" d="M687.14,179.88c.82-2.22-.26-6.67-1.42-8.21a13.29,13.29,0,0,1-1.16-1.84,13,13,0,0,1-.84-2c-.63-1.82-4.46-4.46-8.83-4.58s-8.37,2.17-9.5,4.58c-.13.27-.42,1-1,2.17-.85,1.75-1.41,2.67-1.67,3.17a9.07,9.07,0,0,0-.08,6.71C665.29,186.15,685,185.82,687.14,179.88Z"/><path class="cls-32" d="M486.15,95.27c-1.26-.15-1.53,6.35-5.13,7.87-3,1.27-6.68-1.58-7.37-2.12-3.58-2.77-5.89-8.07-4.25-11.38,1.14-2.32,3.89-3,3.62-4.25-.23-1.08-2.23-.78-3.37-2-2.91-3.09,1-14.8,7.62-16.62,3.23-.89,5.39,1,7.13-.5,2.32-2.06-.7-6.27,1.5-9.13,2.53-3.3,10.68-3.06,13.5.5,1.43,1.81.58,3.33,2.5,6.75,1.54,2.76,2.83,3.09,4,4.75,3.42,4.9-.12,12.88-3.5,20.5-3.91,8.81-6.83,10.09-8.13,10.5-.66.21-3.9,1.13-5.87-.5S487,95.37,486.15,95.27Z"/><path class="cls-33" d="M489.48,78.24a9.89,9.89,0,0,0,.54-3c-.07-1.45-.83-3.68-2.29-4.1-2-.58-4.53,2.39-5.42,4.88a7,7,0,0,0-.29,3.84c.19.84.61,2.67,2.05,3.23s3.46-.67,4.33-1.85A9.2,9.2,0,0,0,489.48,78.24Z"/><path class="cls-32" d="M485.27,89.52a5.91,5.91,0,0,1,1.13,3,5.81,5.81,0,0,1-.5,2.87"/><path class="cls-32" d="M501.9,64.64a4.2,4.2,0,0,0-2.38,1.88c-.61,1.17-.14,2.08-.75,3.25a4.2,4.2,0,0,1-2.37,1.87"/><path class="cls-32" d="M487.15,89.14a7.49,7.49,0,0,0-.88,2.63,7.56,7.56,0,0,0,.5,3.87"/><path class="cls-32" d="M478.65,84.77a9.62,9.62,0,0,1-3.88.5,9.86,9.86,0,0,1-2.37-.5"/><path class="cls-32" d="M478.77,86.52a4.62,4.62,0,0,0-2.62-1.25A4.67,4.67,0,0,0,473,86"/><path class="cls-34" d="M502.76,109.34a23.22,23.22,0,0,1,.69-6c2.36-11.89,2.82-12.35,2.4-14.32-.78-3.74-5.34-4.64-7.34-7.54-1.89-2.73-2.5-7.48-.3-10.18,5.82-7.15,15.27.59,16.33,7.32.31,2-.1,4.51,1.85,5.78,2.69,1.74,4.38-.72,6.12-2.25,3.92-3.47,9.51-4.08,14.52-4.37a64.69,64.69,0,0,1,9.23-.33c2.08.17,6.68,2.76,8.45,2,1.38-.58,1-3,2.83-6.66A18.64,18.64,0,0,1,559,70.46c1.72-2.5,3.55-5.6,6.82-6.15A7.44,7.44,0,0,1,573.46,69c1.81,4.81-3.36,10.11-4,10.75-2.73,2.73-4.6,2.4-5.5,4.75-.33.85-.61,2.23,1.3,8.13,1.12,3.47,2,5.49,2.5,6.75,1.85,4.88,2.45,11.82.5,16-.62,1.31-3.06,5.93-19.55,8.46-17.75,2.71-40,1.74-44-6.46A22.51,22.51,0,0,1,502.76,109.34Z"/><path class="cls-35" d="M503.71,112.46c-1.38.52-9.95,3.86-12.75,12.5a19.38,19.38,0,0,0,.5,12.75c1.15,3.06,3.73,7.64,27.25,19.75,13.91,7.17,17.87,8.08,22,8.25A32.8,32.8,0,0,0,557,162.46c5.3-2.64,8.77-7,15.5-15.5,6.26-8,9.43-12,10.75-17.25.73-2.88,3.35-13.26-2.75-19.5-3.16-3.22-8.6-5.29-12.75-3.75-1,.36-1.68.84-6.75,6.5-5.87,6.54-6.12,7.22-7.75,8s-2.75.79-12.5-.5c-8.32-1.09-12.54-1.66-15.25-2.5-4.85-1.49-5.34-2.43-10-3.75A46.92,46.92,0,0,0,503.71,112.46Z"/><path class="cls-36" d="M541,104.46c0-6.81-4.89-12.33-10.92-12.33s-10.91,5.52-10.91,12.33c0,5,2.89,10.59,6.39,11.23,1.15.21,1.49-.27,5.44-.56,3.59-.26,3.89.09,4.94-.25C539.25,113.78,541,108.63,541,104.46Z"/><path class="cls-36" d="M561.54,101.13c-.55-4.7-4-11-9.58-11.33-6-.34-10.66,6.59-10.92,12.33-.24,5.29,3.18,11,6.39,11.23,1.47.11,2-1,5.11-1.56,3-.54,3.73.24,5.17-.34C560.7,110.26,562,105,561.54,101.13Z"/><ellipse class="cls-6" cx="527.04" cy="101.57" rx="2.33" ry="3.13"/><ellipse class="cls-6" cx="546.21" cy="100.44" rx="2.33" ry="3.13"/><path class="cls-37" d="M513,129.13c2.28-1.31,5.85,3.3,11.33,6,6.9,3.39,13.84,2.29,18.84,1.5,4-.64,12.49-2.1,18.33-8.67h0c3.07-3.34,5.4-7.9,8.5-7.5,2.17.28,3.41,2.82,3.5,3,1.62,3.44-.53,7.48-5.33,15.5-6.61,11-10,16.58-12.17,18-.51.33-10.16,6.33-20.17,2.67-2.11-.77-5.38-3.86-11.83-10-10.56-10-12.94-13.57-12.33-17.33C511.83,131.53,511.89,129.78,513,129.13Z"/><path class="cls-38" d="M526.87,152.63c0-2,5.74-3.43,17.84-6.67,13.43-3.59,17.67-4.89,19-3,1,1.44-.22,4-1.67,7a19.34,19.34,0,0,1-6.5,7.84c-4.29,2.94-8.52,3.16-11.67,3.33-2.82.15-5.44.29-8.16-1.17-.74-.39-.89-.58-4.5-3.5C527.17,153.21,526.88,153.07,526.87,152.63Z"/><path class="cls-5" d="M554.83,150.7a46.87,46.87,0,0,1-6.2,1.69,47.77,47.77,0,0,1-7.44.87q-1.92-7.92-3.85-15.84A30.48,30.48,0,0,0,552,134.59Z"/><line class="cls-5" x1="544.93" y1="136.27" x2="546.35" y2="144.13"/><path class="cls-38" d="M537.46,118.71c1.66-2.13,4.56,0,10.49-1.5,3-.74,9.34-4.35,10.76.75.73,2.66-7.1,12.81-10,12.75-2.58-.05-10.41-4.58-11.5-7C536.58,122.33,536.36,120.11,537.46,118.71Z"/><path class="cls-39" d="M529.12,86.78c-.38,3.63-1.68,6-2.75,6s-2-2.15-2.5-5"/><path class="cls-39" d="M533.87,87.28a5.45,5.45,0,0,1-1.36,2.81,5.76,5.76,0,0,1-4.39,1.69"/><path class="cls-39" d="M551.68,84.28c.38,3.63,1.69,6,2.75,6s2.05-2.15,2.5-5"/><path class="cls-39" d="M546.93,84.78a5.4,5.4,0,0,0,1.37,2.81,5.74,5.74,0,0,0,4.38,1.69"/></svg>